<svg width="141" height="39" fill="none" xmlns="http://www.w3.org/2000/svg"><rect opacity=".8" width="39" height="39" rx="10" fill="#000"/><g opacity=".9" fill="#fff"><path d="M24.6 24.25h-8.125L14.925 28h-4.15l7.8-17.5h4L30.4 28h-4.25l-1.55-3.75zm-1.275-3.075l-2.775-6.7-2.775 6.7h5.55z"/><path d="M11 19.95h19.15v1.25H11v-1.25z"/></g><path opacity=".8" d="M59.918 12.85h-6.696L51.836 16h-1.854l5.706-12.6h1.782L63.194 16h-1.89l-1.386-3.15zm-.63-1.44L56.57 5.236l-2.718 6.174h5.436zM64.203 16h9v1.116h-9V16zM75.638 3.4h5.31c1.332 0 2.514.264 3.546.792s1.83 1.272 2.394 2.232c.576.948.864 2.04.864 3.276 0 1.236-.288 2.334-.864 3.294-.564.948-1.362 1.686-2.394 2.214S82.28 16 80.948 16h-5.31V3.4zm5.202 11.034c1.02 0 1.914-.198 2.682-.594.78-.396 1.38-.948 1.8-1.656.42-.72.63-1.548.63-2.484 0-.936-.21-1.758-.63-2.466a4.265 4.265 0 00-1.8-1.674c-.768-.396-1.662-.594-2.682-.594h-3.402v9.468h3.402zm9.417-7.974h1.728V16h-1.728V6.46zm.864-1.836c-.336 0-.618-.108-.846-.324a1.077 1.077 0 01-.324-.792c0-.312.108-.576.324-.792a1.15 1.15 0 01.846-.342c.336 0 .612.108.828.324a.994.994 0 01.342.774c0 .324-.114.6-.342.828-.216.216-.492.324-.828.324zM55.55 32.03h-4.06L50.6 34h-.55l3.22-7h.51L57 34h-.55l-.9-1.97zm-.19-.43l-1.84-4.04-1.83 4.04h3.67zm8.27 2.4l-1.67-2.34c-.246.033-.473.05-.68.05h-2V34h-.51v-7h2.51c.88 0 1.57.21 2.07.63.5.413.75.99.75 1.73 0 .553-.143 1.02-.43 1.4-.28.373-.683.637-1.21.79L64.21 34h-.58zm-2.35-2.74c.747 0 1.317-.163 1.71-.49.394-.333.59-.803.59-1.41 0-.607-.196-1.073-.59-1.4-.393-.333-.963-.5-1.71-.5h-2v3.8h2zm6.43-3.8h-2.52V27h5.55v.46h-2.52V34h-.51v-6.54zm10.824 6.59a3.771 3.771 0 01-1.86-.46 3.445 3.445 0 01-1.3-1.27 3.56 3.56 0 01-.47-1.82c0-.673.156-1.28.47-1.82.32-.54.753-.963 1.3-1.27a3.771 3.771 0 011.86-.46c.506 0 .973.083 1.4.25.426.16.79.4 1.09.72l-.32.33c-.56-.553-1.277-.83-2.15-.83-.587 0-1.12.133-1.6.4s-.857.637-1.13 1.11c-.274.467-.41.99-.41 1.57 0 .58.136 1.107.41 1.58.273.467.65.833 1.13 1.1.48.267 1.013.4 1.6.4.866 0 1.583-.28 2.15-.84l.32.33c-.3.32-.667.563-1.1.73-.427.167-.89.25-1.39.25zm7.521 0a3.772 3.772 0 01-1.86-.46 3.5 3.5 0 01-1.31-1.28 3.54 3.54 0 01-.47-1.81c0-.667.157-1.27.47-1.81a3.43 3.43 0 011.31-1.27 3.709 3.709 0 011.86-.47c.687 0 1.307.153 1.86.46.554.307.987.73 1.3 1.27.32.54.48 1.147.48 1.82s-.16 1.28-.48 1.82c-.313.54-.746.963-1.3 1.27a3.771 3.771 0 01-1.86.46zm0-.47c.587 0 1.117-.133 1.59-.4a2.957 2.957 0 001.12-1.1c.274-.473.41-1 .41-1.58 0-.58-.136-1.103-.41-1.57a2.936 2.936 0 00-1.12-1.11 3.182 3.182 0 00-1.59-.4c-.586 0-1.12.133-1.6.4a2.937 2.937 0 00-1.12 1.11c-.273.467-.41.99-.41 1.57 0 .58.137 1.107.41 1.58.274.467.647.833 1.12 1.1.48.267 1.014.4 1.6.4zm5.91-6.58h.51v6.54h4.03V34h-4.54v-7zm6.349 0h.51v6.54h4.03V34h-4.54v-7zm11.179 6.54V34h-4.83v-7h4.68v.46h-4.17v2.76h3.73v.45h-3.73v2.87h4.32zm5.281.51a3.77 3.77 0 01-1.86-.46 3.443 3.443 0 01-1.3-1.27 3.553 3.553 0 01-.47-1.82c0-.673.156-1.28.47-1.82.32-.54.753-.963 1.3-1.27a3.77 3.77 0 011.86-.46c.506 0 .973.083 1.4.25.426.16.79.4 1.09.72l-.32.33c-.56-.553-1.277-.83-2.15-.83-.587 0-1.12.133-1.6.4s-.857.637-1.13 1.11c-.274.467-.41.99-.41 1.57 0 .58.136 1.107.41 1.58.273.467.65.833 1.13 1.1.48.267 1.013.4 1.6.4.866 0 1.583-.28 2.15-.84l.32.33c-.3.32-.667.563-1.1.73-.427.167-.89.25-1.39.25zm5.95-6.59h-2.52V27h5.55v.46h-2.52V34h-.51v-6.54zm4.795-.46h.51v7h-.51v-7zm8.951 0l-3.12 7h-.51l-3.12-7h.56l2.83 6.34 2.83-6.34h.53zm6.459 6.54V34h-4.83v-7h4.68v.46h-4.17v2.76h3.73v.45h-3.73v2.87h4.32z" fill="#000"/></svg>