<svg width="143" height="42" fill="none" xmlns="http://www.w3.org/2000/svg"><rect opacity=".8" x=".246" y="1.198" width="39" height="39" rx="10" fill="#fff"/><g opacity=".9" fill="#000"><path d="M24.846 25.448h-8.125l-1.55 3.75h-4.15l7.8-17.5h4l7.825 17.5h-4.25l-1.55-3.75zm-1.275-3.075l-2.775-6.7-2.775 6.7h5.55z"/><path d="M11.246 21.148h19.15v1.25h-19.15v-1.25z"/></g><path opacity=".8" d="M60.164 14.048h-6.696l-1.386 3.15h-1.854l5.706-12.6h1.782l5.724 12.6h-1.89l-1.386-3.15zm-.63-1.44l-2.718-6.174-2.718 6.174h5.436zm4.915 4.59h9v1.116h-9v-1.116zm11.435-12.6h5.31c1.332 0 2.514.264 3.546.792s1.83 1.272 2.394 2.232c.576.948.864 2.04.864 3.276 0 1.236-.288 2.334-.864 3.294-.564.948-1.362 1.686-2.394 2.214s-2.214.792-3.546.792h-5.31v-12.6zm5.202 11.034c1.02 0 1.914-.198 2.682-.594.78-.396 1.38-.948 1.8-1.656.42-.72.63-1.548.63-2.484 0-.936-.21-1.758-.63-2.466a4.265 4.265 0 00-1.8-1.674c-.768-.396-1.662-.594-2.682-.594h-3.402v9.468h3.402zm9.417-7.974h1.728v9.54h-1.728v-9.54zm.864-1.836c-.336 0-.618-.108-.846-.324a1.077 1.077 0 01-.324-.792c0-.312.108-.576.324-.792a1.15 1.15 0 01.846-.342c.336 0 .612.108.828.324a.994.994 0 01.342.774c0 .324-.114.6-.342.828-.216.216-.492.324-.828.324zM55.796 33.228h-4.06l-.89 1.97h-.55l3.22-7h.51l3.22 7h-.55l-.9-1.97zm-.19-.43l-1.84-4.04-1.83 4.04h3.67zm8.27 2.4l-1.67-2.34c-.246.033-.473.05-.68.05h-2v2.29h-.51v-7h2.51c.88 0 1.57.21 2.07.63.5.413.75.99.75 1.73 0 .553-.143 1.02-.43 1.4-.28.373-.683.637-1.21.79l1.75 2.45h-.58zm-2.35-2.74c.747 0 1.317-.163 1.71-.49.394-.333.59-.803.59-1.41 0-.607-.196-1.073-.59-1.4-.393-.333-.963-.5-1.71-.5h-2v3.8h2zm6.43-3.8h-2.52v-.46h5.55v.46h-2.52v6.54h-.51v-6.54zm10.823 6.59a3.771 3.771 0 01-1.86-.46 3.445 3.445 0 01-1.3-1.27 3.56 3.56 0 01-.47-1.82c0-.673.157-1.28.47-1.82.32-.54.754-.963 1.3-1.27a3.772 3.772 0 011.86-.46c.507 0 .974.083 1.4.25.427.16.79.4 1.09.72l-.32.33c-.56-.553-1.276-.83-2.15-.83a3.24 3.24 0 00-1.6.4c-.48.267-.856.637-1.13 1.11-.273.467-.41.99-.41 1.57 0 .58.137 1.107.41 1.58.274.467.65.833 1.13 1.1.48.267 1.014.4 1.6.4.867 0 1.584-.28 2.15-.84l.32.33c-.3.32-.666.563-1.1.73-.426.167-.89.25-1.39.25zm7.522 0a3.771 3.771 0 01-1.86-.46 3.5 3.5 0 01-1.31-1.28 3.54 3.54 0 01-.47-1.81c0-.667.157-1.27.47-1.81a3.43 3.43 0 011.31-1.27 3.708 3.708 0 011.86-.47c.687 0 1.307.153 1.86.46.553.307.987.73 1.3 1.27.32.54.48 1.147.48 1.82s-.16 1.28-.48 1.82c-.313.54-.746.963-1.3 1.27a3.771 3.771 0 01-1.86.46zm0-.47c.587 0 1.117-.133 1.59-.4a2.957 2.957 0 001.12-1.1c.273-.473.41-1 .41-1.58 0-.58-.137-1.103-.41-1.57a2.937 2.937 0 00-1.12-1.11 3.183 3.183 0 00-1.59-.4 3.24 3.24 0 00-1.6.4 2.937 2.937 0 00-1.12 1.11c-.273.467-.41.99-.41 1.57 0 .58.137 1.107.41 1.58.273.467.647.833 1.12 1.1.48.267 1.014.4 1.6.4zm5.91-6.58h.51v6.54h4.03v.46h-4.54v-7zm6.349 0h.51v6.54h4.03v.46h-4.54v-7zm11.179 6.54v.46h-4.83v-7h4.68v.46h-4.17v2.76h3.73v.45h-3.73v2.87h4.32zm5.281.51a3.77 3.77 0 01-1.86-.46 3.443 3.443 0 01-1.3-1.27 3.553 3.553 0 01-.47-1.82c0-.673.156-1.28.47-1.82.32-.54.753-.963 1.3-1.27a3.77 3.77 0 011.86-.46c.506 0 .973.083 1.4.25.426.16.79.4 1.09.72l-.32.33c-.56-.553-1.277-.83-2.15-.83-.587 0-1.12.133-1.6.4s-.857.637-1.13 1.11c-.274.467-.41.99-.41 1.57 0 .58.136 1.107.41 1.58.273.467.65.833 1.13 1.1.48.267 1.013.4 1.6.4.866 0 1.583-.28 2.15-.84l.32.33c-.3.32-.667.563-1.1.73-.427.167-.89.25-1.39.25zm5.95-6.59h-2.52v-.46H124v.46h-2.52v6.54h-.51v-6.54zm4.795-.46h.51v7h-.51v-7zm8.951 0l-3.12 7h-.51l-3.12-7h.56l2.83 6.34 2.83-6.34h.53zm6.459 6.54v.46h-4.83v-7h4.68v.46h-4.17v2.76h3.73v.45h-3.73v2.87h4.32z" fill="#fff"/></svg>