<svg width="81" height="94" viewBox="0 0 81 94" fill="none" xmlns="http://www.w3.org/2000/svg">
<g opacity="0.9" filter="url(#filter0_d)">
<path d="M46.625 47.3333H51.1875V56.7333L58.6092 61.4333L56.3279 65.7666L46.625 59.6333V47.3333ZM58.7917 30.6666H16.2083V67.3333H30.4129C29.105 64.3 28.375 60.9 28.375 57.3333C28.375 51.1449 30.6182 45.21 34.6112 40.8342C38.6041 36.4583 44.0198 34 49.6667 34C52.9212 34 56.0237 34.8 58.7917 36.2333V30.6666ZM16.2083 74C14.5949 74 13.0476 73.2976 11.9068 72.0473C10.7659 70.7971 10.125 69.1014 10.125 67.3333V20.6666C10.125 16.9666 12.8321 14 16.2083 14H19.25V7.33331H25.3333V14H49.6667V7.33331H55.75V14H58.7917C60.4051 14 61.9524 14.7024 63.0932 15.9526C64.2341 17.2028 64.875 18.8985 64.875 20.6666V41C68.6467 45.2 70.9583 50.9666 70.9583 57.3333C70.9583 63.5217 68.7151 69.4566 64.7221 73.8325C60.7292 78.2083 55.3136 80.6666 49.6667 80.6666C43.8571 80.6666 38.595 78.1333 34.7625 74H16.2083ZM49.6667 41.1666C45.7542 41.1666 42.0019 42.8699 39.2354 45.9017C36.4688 48.9336 34.9146 53.0456 34.9146 57.3333C34.9146 66.2666 41.515 73.5 49.6667 73.5C51.6039 73.5 53.5222 73.0818 55.312 72.2694C57.1018 71.4569 58.7281 70.2661 60.098 68.7649C61.4678 67.2637 62.5545 65.4815 63.2958 63.52C64.0372 61.5586 64.4187 59.4563 64.4187 57.3333C64.4187 48.4 57.8183 41.1666 49.6667 41.1666Z" fill="black"/>
</g>
<defs>
<filter id="filter0_d" x="-9" y="-3" width="93" height="100" filterUnits="userSpaceOnUse" color-interpolation-filters="sRGB">
<feFlood flood-opacity="0" result="BackgroundImageFix"/>
<feColorMatrix in="SourceAlpha" type="matrix" values="0 0 0 0 0 0 0 0 0 0 0 0 0 0 0 0 0 0 127 0"/>
<feOffset dy="3"/>
<feGaussianBlur stdDeviation="5"/>
<feColorMatrix type="matrix" values="0 0 0 0 0 0 0 0 0 0 0 0 0 0 0 0 0 0 1 0"/>
<feBlend mode="normal" in2="BackgroundImageFix" result="effect1_dropShadow"/>
<feBlend mode="normal" in="SourceGraphic" in2="effect1_dropShadow" result="shape"/>
</filter>
</defs>
</svg>
