<svg width="80" height="88" viewBox="0 0 80 88" fill="none" xmlns="http://www.w3.org/2000/svg">
<g opacity="0.9" filter="url(#filter0_d)">
<path d="M64 54.3333V34.3333H70V54.3333C70 56.1014 69.3679 57.7971 68.2426 59.0473C67.1174 60.2976 65.5913 61 64 61H28C26.4087 61 24.8826 60.2976 23.7574 59.0473C22.6321 57.7971 22 56.1014 22 54.3333V14.3333C22 10.6333 24.67 7.66663 28 7.66663H52V14.3333H28V54.3333H64ZM36.73 24.6L46 34.9L65.77 12.9333L70 17.6666L46 44.3333L32.5 29.3333L36.73 24.6ZM52 67.6666V74.3333H16C14.4087 74.3333 12.8826 73.6309 11.7574 72.3807C10.6321 71.1304 10 69.4347 10 67.6666V24.3333H16V67.6666H52Z" fill="black"/>
</g>
<defs>
<filter id="filter0_d" x="-6" y="-6" width="92" height="100" filterUnits="userSpaceOnUse" color-interpolation-filters="sRGB">
<feFlood flood-opacity="0" result="BackgroundImageFix"/>
<feColorMatrix in="SourceAlpha" type="matrix" values="0 0 0 0 0 0 0 0 0 0 0 0 0 0 0 0 0 0 127 0"/>
<feOffset dy="3"/>
<feGaussianBlur stdDeviation="5"/>
<feColorMatrix type="matrix" values="0 0 0 0 0 0 0 0 0 0 0 0 0 0 0 0 0 0 1 0"/>
<feBlend mode="normal" in2="BackgroundImageFix" result="effect1_dropShadow"/>
<feBlend mode="normal" in="SourceGraphic" in2="effect1_dropShadow" result="shape"/>
</filter>
</defs>
</svg>
