<svg width="91" height="89" viewBox="0 0 91 89" fill="none" xmlns="http://www.w3.org/2000/svg">
<g opacity="0.9" filter="url(#filter0_d)">
<path d="M54.874 14.5399C55.0281 14.0508 55.0416 13.5205 54.9126 13.0224C54.7836 12.5244 54.5185 12.0832 54.154 11.7599L53.353 11.1149C50.5415 9.05037 47.3492 7.71256 44.011 7.19991C37.9675 6.30991 30.268 8.14491 22.78 17.6649H18.037C17.741 17.665 17.4479 17.7299 17.1745 17.8561C16.9012 17.9822 16.6529 18.167 16.444 18.3999L10.657 24.8349C10.2365 25.3035 10.0004 25.9382 10.0004 26.5999C10.0004 27.2616 10.2365 27.8963 10.657 28.3649L22.2265 41.2599C22.4355 41.4927 22.6837 41.6774 22.9571 41.8035C23.2305 41.9295 23.5235 41.9944 23.8195 41.9944C24.1154 41.9944 24.4085 41.9295 24.6818 41.8035C24.9552 41.6774 25.2034 41.4927 25.4125 41.2599L31.1995 34.8099C31.6201 34.3414 31.8563 33.7067 31.8565 33.0449V29.8499L69.598 74.2149C69.7901 74.5046 70.0363 74.7449 70.3197 74.9192C70.6032 75.0934 70.9171 75.1977 71.2401 75.2247C71.5631 75.2518 71.8876 75.201 72.1913 75.0759C72.495 74.9509 72.7709 74.7544 73 74.4999L79.75 66.9999C80.158 66.5462 80.3935 65.9356 80.4078 65.2944C80.422 64.6532 80.2139 64.0304 79.8265 63.5549L38.746 20.4049C42.1075 18.1249 46.72 16.2099 52.75 16.2099C53.2161 16.2103 53.6708 16.0498 54.0513 15.7507C54.4317 15.4515 54.7192 15.0284 54.874 14.5399Z" fill="black"/>
</g>
<defs>
<filter id="filter0_d" x="0" y="-5" width="92" height="100" filterUnits="userSpaceOnUse" color-interpolation-filters="sRGB">
<feFlood flood-opacity="0" result="BackgroundImageFix"/>
<feColorMatrix in="SourceAlpha" type="matrix" values="0 0 0 0 0 0 0 0 0 0 0 0 0 0 0 0 0 0 127 0"/>
<feOffset dy="3"/>
<feGaussianBlur stdDeviation="5"/>
<feColorMatrix type="matrix" values="0 0 0 0 0 0 0 0 0 0 0 0 0 0 0 0 0 0 1 0"/>
<feBlend mode="normal" in2="BackgroundImageFix" result="effect1_dropShadow"/>
<feBlend mode="normal" in="SourceGraphic" in2="effect1_dropShadow" result="shape"/>
</filter>
</defs>
</svg>
