<svg width="81" height="94" fill="none" xmlns="http://www.w3.org/2000/svg"><g opacity=".9" filter="url(#filter0_d)"><path d="M46.625 47.333h4.563v9.4l7.421 4.7-2.281 4.334-9.703-6.134v-12.3zm12.167-16.666H16.208v36.666h14.205a25.263 25.263 0 01-2.038-10c0-6.188 2.243-12.123 6.236-16.499C38.604 36.458 44.02 34 49.667 34c3.254 0 6.357.8 9.125 2.233v-5.566zM16.208 74c-1.613 0-3.16-.702-4.301-1.953-1.141-1.25-1.782-2.946-1.782-4.714V20.667c0-3.7 2.707-6.667 6.083-6.667h3.042V7.333h6.083V14h24.334V7.333h6.083V14h3.042c1.613 0 3.16.702 4.301 1.953 1.141 1.25 1.782 2.945 1.782 4.714V41c3.772 4.2 6.083 9.967 6.083 16.333 0 6.189-2.243 12.124-6.236 16.5-3.993 4.375-9.408 6.834-15.055 6.834-5.81 0-11.072-2.534-14.904-6.667H16.208zm33.459-32.833c-3.913 0-7.665 1.703-10.432 4.735-2.766 3.032-4.32 7.144-4.32 11.431 0 8.934 6.6 16.167 14.752 16.167a13.64 13.64 0 005.645-1.23 14.743 14.743 0 004.786-3.505 16.349 16.349 0 003.198-5.245 17.52 17.52 0 001.123-6.187c0-8.933-6.6-16.166-14.752-16.166z" fill="#000"/></g><defs><filter id="filter0_d" x="-9" y="-3" width="93" height="100" filterUnits="userSpaceOnUse" color-interpolation-filters="sRGB"><feFlood flood-opacity="0" result="BackgroundImageFix"/><feColorMatrix in="SourceAlpha" values="0 0 0 0 0 0 0 0 0 0 0 0 0 0 0 0 0 0 127 0"/><feOffset dy="3"/><feGaussianBlur stdDeviation="5"/><feColorMatrix values="0 0 0 0 0 0 0 0 0 0 0 0 0 0 0 0 0 0 1 0"/><feBlend in2="BackgroundImageFix" result="effect1_dropShadow"/><feBlend in="SourceGraphic" in2="effect1_dropShadow" result="shape"/></filter></defs></svg>