<svg width="80" height="88" fill="none" xmlns="http://www.w3.org/2000/svg"><g opacity=".9" filter="url(#filter0_d)"><path d="M64 54.333v-20h6v20c0 1.768-.632 3.464-1.757 4.714C67.117 60.297 65.59 61 64 61H28c-1.591 0-3.117-.702-4.243-1.953C22.632 57.797 22 56.101 22 54.333v-40c0-3.7 2.67-6.666 6-6.666h24v6.666H28v40h36zM36.73 24.6L46 34.9l19.77-21.967L70 17.667 46 44.333l-13.5-15 4.23-4.733zM52 67.667v6.666H16c-1.591 0-3.117-.702-4.243-1.952C10.632 71.13 10 69.435 10 67.667V24.333h6v43.334h36z" fill="#000"/></g><defs><filter id="filter0_d" x="-6" y="-6" width="92" height="100" filterUnits="userSpaceOnUse" color-interpolation-filters="sRGB"><feFlood flood-opacity="0" result="BackgroundImageFix"/><feColorMatrix in="SourceAlpha" values="0 0 0 0 0 0 0 0 0 0 0 0 0 0 0 0 0 0 127 0"/><feOffset dy="3"/><feGaussianBlur stdDeviation="5"/><feColorMatrix values="0 0 0 0 0 0 0 0 0 0 0 0 0 0 0 0 0 0 1 0"/><feBlend in2="BackgroundImageFix" result="effect1_dropShadow"/><feBlend in="SourceGraphic" in2="effect1_dropShadow" result="shape"/></filter></defs></svg>