<svg width="91" height="89" fill="none" xmlns="http://www.w3.org/2000/svg"><g opacity=".9" filter="url(#filter0_d)"><path d="M54.874 14.54c.154-.49.168-1.02.039-1.518a2.532 2.532 0 00-.759-1.262l-.801-.645C50.541 9.05 47.349 7.713 44.011 7.2c-6.044-.89-13.743.945-21.231 10.465h-4.743c-.296 0-.59.065-.863.191a2.25 2.25 0 00-.73.544l-5.787 6.435A2.648 2.648 0 0010 26.6c0 .662.236 1.296.657 1.765l11.57 12.895c.209.233.457.417.73.544a2.057 2.057 0 001.725 0c.273-.127.521-.311.73-.544l5.788-6.45c.42-.469.656-1.103.657-1.765V29.85l37.741 44.365c.192.29.438.53.722.704a2.044 2.044 0 001.872.157c.303-.125.579-.322.808-.576l6.75-7.5a2.643 2.643 0 00.658-1.706 2.668 2.668 0 00-.582-1.74l-41.08-43.15c3.361-2.28 7.974-4.194 14.004-4.194a2.1 2.1 0 001.301-.46c.38-.299.668-.722.823-1.21z" fill="#000"/></g><defs><filter id="filter0_d" x="0" y="-5" width="92" height="100" filterUnits="userSpaceOnUse" color-interpolation-filters="sRGB"><feFlood flood-opacity="0" result="BackgroundImageFix"/><feColorMatrix in="SourceAlpha" values="0 0 0 0 0 0 0 0 0 0 0 0 0 0 0 0 0 0 127 0"/><feOffset dy="3"/><feGaussianBlur stdDeviation="5"/><feColorMatrix values="0 0 0 0 0 0 0 0 0 0 0 0 0 0 0 0 0 0 1 0"/><feBlend in2="BackgroundImageFix" result="effect1_dropShadow"/><feBlend in="SourceGraphic" in2="effect1_dropShadow" result="shape"/></filter></defs></svg>