<svg width="62" height="62" viewBox="0 0 62 62" fill="none" xmlns="http://www.w3.org/2000/svg">
<path opacity="0.7" d="M31 61C47.5686 61 61 47.5685 61 31C61 14.4315 47.5686 1 31 1C14.4315 1 1 14.4315 1 31C1 47.5685 14.4315 61 31 61Z" stroke="black" stroke-width="2" stroke-linecap="round" stroke-linejoin="round"/>
<path opacity="0.7" d="M31 43C37.6274 43 43 37.6274 43 31C43 24.3726 37.6274 19 31 19C24.3726 19 19 24.3726 19 31C19 37.6274 24.3726 43 31 43Z" stroke="black" stroke-width="2" stroke-linecap="round" stroke-linejoin="round"/>
<path opacity="0.7" d="M58.51 19H31" stroke="black" stroke-width="2" stroke-linecap="round" stroke-linejoin="round"/>
<path opacity="0.7" d="M6.8501 13.1799L20.6201 36.9999" stroke="black" stroke-width="2" stroke-linecap="round" stroke-linejoin="round"/>
<path opacity="0.7" d="M27.64 60.82L41.38 37" stroke="black" stroke-width="2" stroke-linecap="round" stroke-linejoin="round"/>
</svg>
