<svg width="29" height="67" viewBox="0 0 29 67" fill="none" xmlns="http://www.w3.org/2000/svg">
<g clip-path="url(#clip0)">
<path d="M14.1823 5.85419C14.4143 5.85419 14.6369 5.94637 14.801 6.11047C14.9651 6.27456 15.0573 6.49712 15.0573 6.72919V10.2292C15.0573 10.4613 14.9651 10.6838 14.801 10.8479C14.6369 11.012 14.4143 11.1042 14.1823 11.1042C13.9502 11.1042 13.7276 11.012 13.5635 10.8479C13.3994 10.6838 13.3073 10.4613 13.3073 10.2292V6.72919C13.3073 6.49712 13.3994 6.27456 13.5635 6.11047C13.7276 5.94637 13.9502 5.85419 14.1823 5.85419ZM21.1823 19.8542C21.1823 21.7107 20.4448 23.4912 19.132 24.8039C17.8192 26.1167 16.0388 26.8542 14.1823 26.8542C12.3257 26.8542 10.5453 26.1167 9.2325 24.8039C7.91975 23.4912 7.18225 21.7107 7.18225 19.8542V9.35419C7.18225 7.49767 7.91975 5.71719 9.2325 4.40444C10.5453 3.09169 12.3257 2.35419 14.1823 2.35419C16.0388 2.35419 17.8192 3.09169 19.132 4.40444C20.4448 5.71719 21.1823 7.49767 21.1823 9.35419V19.8542ZM14.1823 0.604187C11.8616 0.604187 9.63601 1.52606 7.99507 3.167C6.35412 4.80795 5.43225 7.03354 5.43225 9.35419V19.8542C5.43225 22.1748 6.35412 24.4004 7.99507 26.0414C9.63601 27.6823 11.8616 28.6042 14.1823 28.6042C16.5029 28.6042 18.7285 27.6823 20.3694 26.0414C22.0104 24.4004 22.9323 22.1748 22.9323 19.8542V9.35419C22.9323 7.03354 22.0104 4.80795 20.3694 3.167C18.7285 1.52606 16.5029 0.604187 14.1823 0.604187V0.604187Z" fill="#FFFEFE"/>
</g>
<g opacity="0.7">
<path d="M21.209 56.2214L14.2001 65.4909L7.19116 56.2214L21.209 56.2214Z" stroke="#D39742" stroke-width="2" stroke-linecap="round" stroke-linejoin="round"/>
<path d="M21.209 44.8919L14.2001 54.1615L7.19116 44.8919L21.209 44.8919Z" stroke="#D39742" stroke-width="2" stroke-linecap="round" stroke-linejoin="round"/>
</g>
<defs>
<clipPath id="clip0">
<rect width="28" height="28" fill="white" transform="translate(0.182251 0.604187)"/>
</clipPath>
</defs>
</svg>
