<svg width="58" height="58" viewBox="0 0 58 58" fill="none" xmlns="http://www.w3.org/2000/svg">
<g opacity="0.8" clip-path="url(#clip0)">
<path d="M28.5855 22.3435C28.8419 21.9699 29.2362 21.7135 29.6816 21.6307C30.1271 21.5478 30.5872 21.6453 30.9607 21.9017C31.3343 22.1581 31.5907 22.5524 31.6736 22.9978C31.7564 23.4432 31.6589 23.9033 31.4026 24.2769L27.0814 30.5729L28.6601 31.9257L33.501 39.7859C34.0155 40.6363 33.9539 41.6921 33.3932 42.509L29.1784 48.6501C28.3435 49.7761 26.7996 50.0633 25.6156 49.3129L16.4603 43.0293C15.9251 42.662 15.563 42.1027 15.4675 41.457L12.6259 30.8044L14.4125 30.4352C14.8832 30.3231 15.3698 30.4292 15.7642 30.6999L16.0741 30.9125L18.9186 36.4286L28.5855 22.3435ZM33.8608 17.6762C35.3551 18.7017 36.3807 20.2788 36.7121 22.0606C37.0436 23.8423 36.6536 25.6827 35.6281 27.177C34.178 29.2898 31.8235 30.3052 29.4663 30.117L30.6457 28.3987C32.0365 28.2137 33.3592 27.4639 34.2196 26.2103C34.9887 25.0896 35.2812 23.7093 35.0326 22.373C34.7841 21.0367 34.0148 19.8538 32.8941 19.0847C31.7735 18.3155 30.3931 18.0231 29.0568 18.2716C27.7205 18.5202 26.5377 19.2894 25.7685 20.4101C24.9082 21.6637 24.6841 23.1675 25.0116 24.5319L23.8323 26.2503C22.8091 24.1183 22.91 21.5562 24.36 19.4434C25.3855 17.9492 26.9627 16.9235 28.7444 16.5921C30.5262 16.2607 32.3666 16.6506 33.8608 17.6762ZM35.7942 14.8591C38.0356 16.3974 39.5741 18.7631 40.0712 21.4357C40.5683 24.1084 39.9834 26.869 38.4451 29.1104C36.8017 31.5048 34.3226 32.9735 31.6677 33.4305L30.6942 31.83C31.9582 31.723 33.1828 31.3368 34.2795 30.6994C35.3763 30.0619 36.318 29.1891 37.0366 28.1437C38.3185 26.2759 38.806 23.9753 38.3917 21.7482C37.9774 19.521 36.6953 17.5496 34.8275 16.2677C32.9597 14.9857 30.6592 14.4983 28.432 14.9126C26.2048 15.3269 24.2334 16.6089 22.9515 18.4767C20.9698 21.3642 21.0009 25.0322 22.7496 27.8278L21.7055 29.349C19.2261 25.9275 19.0199 21.1862 21.543 17.51C23.0813 15.2687 25.447 13.7302 28.1196 13.2331C30.7922 12.7359 33.5529 13.3208 35.7942 14.8591Z" fill="black"/>
</g>
<defs>
<clipPath id="clip0">
<rect width="41" height="41" fill="white" transform="translate(23.2007) rotate(34.4628)"/>
</clipPath>
</defs>
</svg>
