<svg width="15" height="10" viewBox="0 0 15 10" fill="none" xmlns="http://www.w3.org/2000/svg">
<path fill-rule="evenodd" clip-rule="evenodd" d="M1.74316 10C1.74316 10 0.588623 10 0.588623 9.16667C0.588623 8.33333 1.74316 5.83333 7.51584 5.83333C13.2885 5.83333 14.4431 8.33333 14.4431 9.16667C14.4431 10 13.2885 10 13.2885 10H1.74316ZM7.51584 5C8.43444 5 9.31543 4.73661 9.96498 4.26777C10.6145 3.79893 10.9794 3.16304 10.9794 2.5C10.9794 1.83696 10.6145 1.20107 9.96498 0.732233C9.31543 0.263392 8.43444 0 7.51584 0C6.59723 0 5.71625 0.263392 5.0667 0.732233C4.41715 1.20107 4.05223 1.83696 4.05223 2.5C4.05223 3.16304 4.41715 3.79893 5.0667 4.26777C5.71625 4.73661 6.59723 5 7.51584 5Z" fill="black" fill-opacity="0.58"/>
</svg>
