<svg width="19" height="19" viewBox="0 0 19 19" fill="none" xmlns="http://www.w3.org/2000/svg">
<path d="M0.112854 9.27603C0.112854 4.15661 4.14743 0.00650024 9.12433 0.00650024C14.1012 0.00650024 18.1358 4.15661 18.1358 9.27603C18.1358 14.3955 14.1012 18.5456 9.12433 18.5456C4.14743 18.5456 0.112854 14.3955 0.112854 9.27603Z" fill="white"/>
<mask id="mask0" mask-type="alpha" maskUnits="userSpaceOnUse" x="0" y="0" width="19" height="19">
<path fill-rule="evenodd" clip-rule="evenodd" d="M0.112854 9.27603C0.112854 4.15661 4.14743 0.00650024 9.12433 0.00650024C14.1012 0.00650024 18.1358 4.15661 18.1358 9.27603C18.1358 14.3955 14.1012 18.5456 9.12433 18.5456C4.14743 18.5456 0.112854 14.3955 0.112854 9.27603Z" fill="white"/>
</mask>
<g mask="url(#mask0)">
<path fill-rule="evenodd" clip-rule="evenodd" d="M9.12478 4.33228C7.8195 4.33228 7.65569 4.33815 7.14303 4.36214C6.63138 4.38625 6.28213 4.46957 5.97654 4.59183C5.66043 4.7181 5.39229 4.88701 5.12514 5.16191C4.8578 5.4367 4.69359 5.71252 4.57043 6.03758C4.45128 6.35202 4.37017 6.71138 4.34714 7.23748C4.32421 7.76482 4.31821 7.93342 4.31821 9.27608C4.31821 10.6187 4.32401 10.7867 4.34724 11.3141C4.37077 11.8404 4.45178 12.1996 4.57053 12.514C4.69339 12.8391 4.8576 13.1149 5.12484 13.3897C5.39189 13.6647 5.66003 13.8341 5.97593 13.9603C6.28173 14.0826 6.63108 14.1659 7.14263 14.19C7.65529 14.214 7.819 14.2199 9.12418 14.2199C10.4296 14.2199 10.5929 14.214 11.1055 14.19C11.6172 14.1659 11.9668 14.0826 12.2726 13.9603C12.5886 13.8341 12.8564 13.6647 13.1234 13.3897C13.3908 13.1149 13.555 12.8391 13.6781 12.5141C13.7963 12.1996 13.8774 11.8403 13.9014 11.3142C13.9244 10.7868 13.9304 10.6187 13.9304 9.27608C13.9304 7.93342 13.9244 7.76492 13.9014 7.23758C13.8774 6.71127 13.7963 6.35202 13.6781 6.03768C13.555 5.71252 13.3908 5.4367 13.1234 5.16191C12.8561 4.88691 12.5887 4.71799 12.2723 4.59183C11.9659 4.46957 11.6165 4.38625 11.1048 4.36214C10.5922 4.33815 10.429 4.33228 9.12328 4.33228H9.12478ZM8.69362 5.22319C8.77734 5.22305 8.8674 5.22309 8.96459 5.22314L9.12478 5.22319C10.408 5.22319 10.5601 5.22792 11.0669 5.25161C11.5355 5.27365 11.7898 5.3542 11.9592 5.42186C12.1835 5.51147 12.3434 5.61859 12.5115 5.79162C12.6797 5.96465 12.7839 6.12945 12.8712 6.36016C12.937 6.53422 13.0154 6.79583 13.0367 7.27785C13.0597 7.79901 13.0647 7.95556 13.0647 9.27494C13.0647 10.5943 13.0597 10.7509 13.0367 11.272C13.0153 11.754 12.937 12.0157 12.8712 12.1897C12.7841 12.4204 12.6797 12.5847 12.5115 12.7576C12.3433 12.9307 12.1836 13.0378 11.9592 13.1274C11.79 13.1954 11.5355 13.2757 11.0669 13.2978C10.5602 13.3214 10.408 13.3266 9.12478 13.3266C7.84143 13.3266 7.68933 13.3214 7.18268 13.2978C6.71408 13.2755 6.45975 13.195 6.29024 13.1273C6.06595 13.0377 5.90574 12.9306 5.73753 12.7575C5.56931 12.5845 5.46518 12.4201 5.37787 12.1893C5.31208 12.0152 5.23368 11.7536 5.21235 11.2716C5.18932 10.7505 5.18472 10.5939 5.18472 9.2737C5.18472 7.9535 5.18932 7.79777 5.21235 7.27661C5.23378 6.79459 5.31208 6.53298 5.37787 6.35871C5.46498 6.128 5.56931 5.96321 5.73753 5.79018C5.90574 5.61714 6.06595 5.51003 6.29024 5.42022C6.45965 5.35224 6.71408 5.2719 7.18268 5.24976C7.62605 5.22916 7.79787 5.22298 8.69362 5.22195V5.22319ZM11.1135 6.63711C11.1135 6.30948 11.3719 6.04406 11.6903 6.04406V6.04386C12.0087 6.04386 12.267 6.30959 12.267 6.63711C12.267 6.96464 12.0087 7.23037 11.6903 7.23037C11.3719 7.23037 11.1135 6.96464 11.1135 6.63711ZM9.12468 6.73722C7.76167 6.73728 6.65661 7.87402 6.65661 9.27607C6.65661 10.6782 7.76173 11.8144 9.12478 11.8144C10.4878 11.8144 11.5925 10.6782 11.5925 9.27607C11.5925 7.87399 10.4877 6.73722 9.12468 6.73722ZM10.7268 9.27608C10.7268 8.3659 10.0095 7.62815 9.12478 7.62815C8.23994 7.62815 7.52272 8.3659 7.52272 9.27608C7.52272 10.1861 8.23994 10.924 9.12478 10.924C10.0095 10.924 10.7268 10.1861 10.7268 9.27608Z" fill="black"/>
</g>
</svg>
