<svg width="19" height="19" viewBox="0 0 19 19" fill="none" xmlns="http://www.w3.org/2000/svg">
<path d="M9.1626 18.5456C14.1395 18.5456 18.1741 14.3954 18.1741 9.27603C18.1741 4.15662 14.1395 0.00650024 9.1626 0.00650024C4.18571 0.00650024 0.151123 4.15662 0.151123 9.27603C0.151123 14.3954 4.18571 18.5456 9.1626 18.5456Z" fill="url(#paint0_linear)"/>
<path d="M3.50722 9.72947C4.56066 9.13259 5.73658 8.63443 6.8353 8.13372C8.72553 7.3136 10.6233 6.50769 12.5402 5.7574C12.9131 5.62956 13.5832 5.50454 13.649 6.07307C13.613 6.87782 13.465 7.67786 13.3634 8.47789C13.1057 10.2373 12.8079 11.9906 12.5175 13.7441C12.4174 14.3282 11.7061 14.6306 11.2509 14.2568C10.1571 13.4968 9.05483 12.7442 7.97495 11.9666C7.62122 11.5968 7.94923 11.0659 8.26516 10.8018C9.16608 9.88856 10.1215 9.11263 10.9754 8.15215C11.2057 7.58002 10.5252 8.06219 10.3007 8.20993C9.06733 9.0842 7.86415 10.0118 6.5638 10.7802C5.89957 11.1563 5.12541 10.8349 4.46149 10.625C3.8662 10.3715 2.99389 10.1161 3.50716 9.72951L3.50722 9.72947Z" fill="white"/>
<defs>
<linearGradient id="paint0_linear" x1="6.91078" y1="0.779579" x2="2.18589" y2="11.4968" gradientUnits="userSpaceOnUse">
<stop stop-color="#37AEE2"/>
<stop offset="1" stop-color="#1E96C8"/>
</linearGradient>
</defs>
</svg>
