<svg width="19" height="19" viewBox="0 0 19 19" fill="none" xmlns="http://www.w3.org/2000/svg">
<path d="M9.19958 18.5456C14.1765 18.5456 18.2111 14.3955 18.2111 9.27603C18.2111 4.15661 14.1765 0.00650024 9.19958 0.00650024C4.22268 0.00650024 0.18811 4.15661 0.18811 9.27603C0.18811 14.3955 4.22268 18.5456 9.19958 18.5456Z" fill="#25D366"/>
<path fill-rule="evenodd" clip-rule="evenodd" d="M9.49661 14.4332H9.49439C8.59758 14.4329 7.71637 14.2014 6.9337 13.7623L4.09308 14.5288L4.85328 11.6725C4.38435 10.8366 4.1376 9.8884 4.138 8.91694C4.13918 5.87786 6.543 3.40533 9.49656 3.40533C10.93 3.40597 12.2754 3.97999 13.2871 5.02187C14.2988 6.06369 14.8556 7.44853 14.8551 8.92129C14.8539 11.9597 12.451 14.432 9.49661 14.4332ZM7.06532 12.7644L7.22795 12.8637C7.91176 13.2811 8.69561 13.502 9.49481 13.5023H9.49661C11.9514 13.5023 13.9494 11.4471 13.9503 8.92097C13.9508 7.69682 13.488 6.54581 12.6471 5.67984C11.8062 4.81388 10.688 4.33674 9.49837 4.33632C7.04168 4.33632 5.04371 6.39132 5.04273 8.91726C5.04239 9.78291 5.27785 10.626 5.72368 11.3554L5.82958 11.5287L5.37965 13.2193L7.06532 12.7644ZM12.0128 10.108C12.1062 10.1544 12.1693 10.1858 12.1962 10.232C12.2296 10.2894 12.2296 10.5652 12.1181 10.8869C12.0065 11.2086 11.4716 11.5023 11.2144 11.5418C10.9837 11.5773 10.6918 11.5921 10.3711 11.4872C10.1766 11.4238 9.9272 11.339 9.60776 11.1971C8.35256 10.6396 7.5043 9.3882 7.34398 9.15168C7.33275 9.13511 7.3249 9.12353 7.32052 9.11751L7.31944 9.11602C7.24858 9.01878 6.77381 8.36717 6.77381 7.69279C6.77381 7.0584 7.07676 6.72588 7.21621 6.57282C7.22576 6.56233 7.23455 6.55269 7.24241 6.54385C7.36514 6.40596 7.5102 6.37149 7.59946 6.37149C7.6887 6.37149 7.77806 6.37234 7.85607 6.37637C7.8657 6.37687 7.87571 6.37681 7.88606 6.37674C7.96408 6.37627 8.06136 6.37569 8.15732 6.61279C8.19423 6.70403 8.24825 6.8393 8.30522 6.98197C8.42043 7.27049 8.54773 7.58928 8.57013 7.63541C8.60361 7.70435 8.62592 7.78475 8.58129 7.87671C8.57459 7.8905 8.56839 7.90351 8.56247 7.91594C8.52895 7.98633 8.50429 8.03812 8.4474 8.10644C8.42503 8.13331 8.40191 8.16228 8.37879 8.19124C8.33273 8.24894 8.28667 8.30664 8.24656 8.34774C8.17953 8.41642 8.10976 8.49093 8.18786 8.62881C8.26596 8.7667 8.53467 9.21768 8.9327 9.58289C9.36057 9.97546 9.73244 10.1414 9.92094 10.2255C9.95775 10.2419 9.98756 10.2552 10.0094 10.2665C10.1433 10.3354 10.2214 10.3239 10.2995 10.232C10.3776 10.1401 10.6342 9.82984 10.7234 9.69198C10.8127 9.55415 10.902 9.57711 11.0247 9.62305C11.1474 9.66905 11.8057 10.0022 11.9396 10.0711C11.9657 10.0846 11.9902 10.0967 12.0128 10.108Z" fill="#FDFDFD"/>
</svg>
