<svg width="19" height="19" fill="none" xmlns="http://www.w3.org/2000/svg"><path d="M.113 9.276c0-5.12 4.034-9.27 9.011-9.27 4.977 0 9.012 4.15 9.012 9.27 0 5.12-4.035 9.27-9.012 9.27S.113 14.396.113 9.276z" fill="#fff"/><mask id="a" maskUnits="userSpaceOnUse" x="0" y="0" width="19" height="19"><path fill-rule="evenodd" clip-rule="evenodd" d="M.113 9.276c0-5.12 4.034-9.27 9.011-9.27 4.977 0 9.012 4.15 9.012 9.27 0 5.12-4.035 9.27-9.012 9.27S.113 14.396.113 9.276z" fill="#fff"/></mask><g mask="url(#a)"><path fill-rule="evenodd" clip-rule="evenodd" d="M9.125 4.332c-1.306 0-1.47.006-1.982.03s-.86.108-1.166.23a2.348 2.348 0 00-.852.57c-.267.275-.431.55-.555.876-.119.314-.2.673-.223 1.2-.023.527-.029.695-.029 2.038s.006 1.51.03 2.038c.023.526.104.886.223 1.2.122.325.287.6.554.876.267.275.535.444.85.57.307.123.656.206 1.168.23.512.024.676.03 1.981.03 1.306 0 1.469-.006 1.981-.03s.862-.107 1.168-.23c.316-.126.583-.295.85-.57a2.42 2.42 0 00.555-.876c.118-.314.2-.674.223-1.2.023-.527.03-.695.03-2.038s-.007-1.511-.03-2.038c-.024-.527-.105-.886-.223-1.2a2.433 2.433 0 00-.555-.876 2.343 2.343 0 00-.85-.57c-.307-.122-.656-.206-1.168-.23-.513-.024-.676-.03-1.982-.03h.002zm-.431.891h.43c1.284 0 1.436.005 1.943.029.469.022.723.102.892.17.225.09.384.197.553.37.168.173.272.337.36.568.065.174.143.436.165.918.023.521.028.678.028 1.997 0 1.32-.005 1.476-.028 1.997-.022.482-.1.744-.166.918a1.53 1.53 0 01-.36.568 1.48 1.48 0 01-.552.37c-.169.067-.423.148-.892.17-.507.023-.659.029-1.942.029-1.284 0-1.436-.006-1.942-.03-.469-.022-.723-.102-.893-.17a1.484 1.484 0 01-.552-.37 1.537 1.537 0 01-.36-.568c-.066-.174-.144-.435-.166-.917-.023-.521-.027-.678-.027-1.998 0-1.32.004-1.476.027-1.997.022-.482.1-.744.166-.918.087-.231.191-.396.36-.569.168-.173.328-.28.552-.37.17-.068.424-.148.893-.17.443-.02.615-.027 1.51-.028v.001zm2.42 1.414c0-.328.258-.593.576-.593.319 0 .577.266.577.593a.585.585 0 01-.577.593.585.585 0 01-.576-.593zm-1.99.1c-1.362 0-2.467 1.137-2.467 2.54 0 1.401 1.105 2.537 2.468 2.537s2.467-1.136 2.467-2.538-1.104-2.539-2.467-2.539zm1.603 2.54c0-.911-.718-1.649-1.602-1.649-.885 0-1.602.738-1.602 1.648 0 .91.717 1.648 1.602 1.648.884 0 1.602-.738 1.602-1.648z" fill="#000"/></g></svg>