<svg width="19" height="19" fill="none" xmlns="http://www.w3.org/2000/svg"><path d="M9.163 18.546c4.976 0 9.011-4.15 9.011-9.27 0-5.12-4.034-9.27-9.011-9.27C4.186.007.15 4.157.15 9.277c0 5.12 4.035 9.27 9.012 9.27z" fill="url(#paint0_linear)"/><path d="M3.507 9.73c1.054-.597 2.23-1.096 3.328-1.596 1.89-.82 3.788-1.626 5.705-2.377.373-.127 1.043-.252 1.109.316-.036.805-.184 1.605-.286 2.405-.257 1.76-.555 3.513-.845 5.266-.1.584-.812.887-1.267.513-1.094-.76-2.196-1.513-3.276-2.29-.354-.37-.026-.901.29-1.165.901-.913 1.856-1.69 2.71-2.65.23-.572-.45-.09-.674.058-1.234.874-2.437 1.802-3.737 2.57-.664.376-1.439.055-2.103-.155-.595-.254-1.467-.509-.954-.895z" fill="#fff"/><defs><linearGradient id="paint0_linear" x1="6.911" y1=".78" x2="2.186" y2="11.497" gradientUnits="userSpaceOnUse"><stop stop-color="#37AEE2"/><stop offset="1" stop-color="#1E96C8"/></linearGradient></defs></svg>