<svg width="19" height="19" fill="none" xmlns="http://www.w3.org/2000/svg"><path d="M9.2 18.546c4.977 0 9.011-4.15 9.011-9.27 0-5.12-4.034-9.27-9.011-9.27-4.977 0-9.012 4.15-9.012 9.27 0 5.12 4.035 9.27 9.012 9.27z" fill="#25D366"/><path fill-rule="evenodd" clip-rule="evenodd" d="M9.497 14.433h-.003a5.237 5.237 0 01-2.56-.67l-2.84.766.76-2.857a5.624 5.624 0 01-.716-2.755c.001-3.04 2.405-5.512 5.359-5.512a5.25 5.25 0 013.79 1.617 5.56 5.56 0 011.568 3.9c-.001 3.038-2.404 5.51-5.358 5.511zm-2.432-1.669l.163.1a4.353 4.353 0 002.267.638h.002c2.454 0 4.452-2.055 4.453-4.581a4.62 4.62 0 00-1.303-3.241 4.362 4.362 0 00-3.149-1.344c-2.456 0-4.454 2.055-4.455 4.581 0 .866.235 1.709.68 2.438l.107.174-.45 1.69 1.685-.455zm4.948-2.656c.093.046.156.078.183.124.034.057.034.333-.078.655-.111.322-.646.615-.904.655a1.79 1.79 0 01-.843-.055 7.537 7.537 0 01-.763-.29c-1.255-.557-2.104-1.809-2.264-2.045a1.675 1.675 0 00-.023-.034l-.002-.002c-.07-.097-.545-.749-.545-1.423 0-.635.303-.967.442-1.12a.486.486 0 01.383-.201 5.17 5.17 0 01.287.005c.078 0 .175-.001.271.236l.148.369c.115.288.243.607.265.653.034.07.056.15.011.242a5.483 5.483 0 00-.019.039.765.765 0 01-.115.19l-.068.085c-.046.058-.092.116-.132.157-.067.068-.137.143-.06.28.079.139.348.59.746.955.428.392.8.558.988.643l.088.04c.134.07.212.058.29-.034.079-.092.335-.402.424-.54.09-.138.179-.115.302-.069.122.046.78.38.915.448l.073.037z" fill="#FDFDFD"/></svg>