<svg width="29" height="67" fill="none" xmlns="http://www.w3.org/2000/svg"><g clip-path="url(#clip0)"><path d="M14.182 5.854a.875.875 0 01.875.875v3.5a.875.875 0 11-1.75 0v-3.5a.875.875 0 01.875-.875zm7 14a7 7 0 11-14 0v-10.5a7 7 0 1114 0v10.5zm-7-19.25a8.75 8.75 0 00-8.75 8.75v10.5a8.75 8.75 0 0017.5 0v-10.5a8.75 8.75 0 00-8.75-8.75z" fill="#FFFEFE"/></g><path d="M21.209 56.221l-7.009 9.27-7.009-9.27H21.21zm0-11.329l-7.009 9.27-7.009-9.27H21.21z" opacity=".7" stroke="#D39742" stroke-width="2" stroke-linecap="round" stroke-linejoin="round"/><defs><clipPath id="clip0"><path fill="#fff" transform="translate(.182 .604)" d="M0 0h28v28H0z"/></clipPath></defs></svg>