<svg width="58" height="58" fill="none" xmlns="http://www.w3.org/2000/svg"><g opacity=".8" clip-path="url(#clip0)"><path d="M28.585 22.343a1.708 1.708 0 112.818 1.934l-4.322 6.296 1.58 1.353 4.84 7.86c.515.85.453 1.906-.108 2.723l-4.215 6.141a2.651 2.651 0 01-3.562.663l-9.156-6.284a2.312 2.312 0 01-.993-1.572l-2.841-10.653 1.787-.369c.47-.112.957-.006 1.351.265l.31.213 2.845 5.516 9.666-14.086zm5.276-4.667a6.833 6.833 0 011.767 9.501 6.758 6.758 0 01-6.162 2.94l1.18-1.718a5.148 5.148 0 003.574-2.189 5.125 5.125 0 00-8.451-5.8 5.148 5.148 0 00-.757 4.122l-1.18 1.718a6.758 6.758 0 01.528-6.807 6.833 6.833 0 019.5-1.767zm1.933-2.817a10.25 10.25 0 012.651 14.251c-1.643 2.395-4.122 3.864-6.777 4.32l-.974-1.6a8.575 8.575 0 006.343-3.686 8.542 8.542 0 10-14.085-9.667 8.52 8.52 0 00-.202 9.35l-1.044 1.522c-2.48-3.422-2.686-8.163-.163-11.839a10.25 10.25 0 0114.251-2.65z" fill="#000"/></g><defs><clipPath id="clip0"><path fill="#fff" transform="rotate(34.463 11.6 37.402)" d="M0 0h41v41H0z"/></clipPath></defs></svg>