<svg width="15" height="10" fill="none" xmlns="http://www.w3.org/2000/svg"><path fill-rule="evenodd" clip-rule="evenodd" d="M1.743 10S.59 10 .59 9.167c0-.834 1.154-3.334 6.927-3.334s6.927 2.5 6.927 3.334c0 .833-1.154.833-1.154.833H1.743zm5.773-5c.918 0 1.8-.263 2.449-.732.65-.47 1.014-1.105 1.014-1.768S10.615 1.201 9.965.732C9.315.263 8.435 0 7.515 0c-.918 0-1.799.263-2.448.732-.65.47-1.015 1.105-1.015 1.768s.365 1.299 1.015 1.768c.65.469 1.53.732 2.449.732z" fill="#000" fill-opacity=".58"/></svg>