<svg width="55" height="51" fill="none" xmlns="http://www.w3.org/2000/svg"><path d="M27.5 0C42.688 0 55 11.304 55 25.249c0 13.945-12.312 25.249-27.5 25.249S0 39.194 0 25.249C0 11.304 12.312 0 27.5 0z" fill="#D39742"/><path d="M34.827 22.05c-.134-.998-.468-1.782-1.061-2.476-.77-.893-1.755-1.428-3.212-1.746-.95-.211-1.333-.187-1.676.101-.32.27-.383.811-.138 1.161.172.255.37.346.922.445.734.124 1.242.285 1.704.528.98.52 1.436 1.333 1.485 2.65.023.617.081.807.316 1.026.436.401 1.212.323 1.54-.156.121-.181.14-.26.153-.68a6.151 6.151 0 00-.033-.854z" fill="#fff"/><path d="M38.666 23.174c-.194-3.056-1.496-5.516-3.826-7.246-1.313-.972-2.9-1.64-4.64-1.966-.637-.116-1.81-.21-2.012-.156-.19.05-.459.238-.578.41-.127.184-.155.598-.047.837.174.4.498.541 1.407.614 1.4.113 2.844.564 3.936 1.233 1.245.761 2.236 1.803 2.877 3.027.553 1.05.894 2.566.884 3.923-.003.49.08.768.294.97.325.312.798.38 1.215.173.463-.223.571-.615.49-1.819zm4.248 11.771a3.252 3.252 0 00-.326-.599c-.684-.948-4.358-3.588-6.192-4.451-1.048-.494-1.824-.66-2.4-.505-.618.16-.944.425-1.98 1.607-.418.475-.847.919-.96.989-.283.18-.837.324-1.228.324-.906-.005-2.55-.544-3.815-1.253-.982-.548-2.242-1.532-3.208-2.505-1.14-1.143-1.915-2.15-2.529-3.289-.792-1.462-.993-2.356-.662-3.01.081-.164.19-.339.239-.394.049-.05.559-.434 1.123-.853 1.108-.808 1.287-.993 1.493-1.547.26-.704.19-1.422-.212-2.146-.31-.55-1.118-1.747-1.704-2.52-.776-1.018-2.708-3.194-3.094-3.489-.694-.519-1.585-.609-2.567-.26-1.037.37-2.98 1.807-3.81 2.81-.749.909-1.037 1.552-1.08 2.4-.038.7.027.989.429 1.882 3.142 7.007 7.832 12.602 14.274 17.044 3.365 2.32 6.855 4.087 10.475 5.295 2.111.704 3.028.739 4.108.16.456-.25 1.585-1.313 2.215-2.086 1.042-1.288 1.427-1.882 1.536-2.356.076-.325.016-.888-.125-1.248z" fill="#fff"/><path d="M42.574 23.876c-.07-1.729-.387-3.147-1.048-4.728-.652-1.555-1.313-2.57-2.56-3.943-1.18-1.287-2.096-2.022-3.55-2.84-2.026-1.14-4.493-1.894-7.258-2.211-.943-.111-1.156-.103-1.445.074-.56.336-.553 1.173.009 1.504.186.105.351.143 1.105.234 1.158.143 1.903.278 2.786.499 3.464.87 6.128 2.646 7.908 5.284 1.49 2.2 2.11 4.398 2.021 7.206-.03.95-.008 1.117.15 1.345.303.425 1.101.51 1.51.156.256-.215.304-.376.354-1.189.024-.424.029-1.05.018-1.39z" fill="#fff"/></svg>