<svg width="143" height="42" viewBox="0 0 143 42" fill="none" xmlns="http://www.w3.org/2000/svg">
<rect opacity="0.8" x="0.245972" y="1.19792" width="39" height="39" rx="10" fill="white"/>
<g opacity="0.9">
<path d="M24.846 25.4479H16.721L15.171 29.1979H11.021L18.821 11.6979H22.821L30.646 29.1979H26.396L24.846 25.4479ZM23.571 22.3729L20.796 15.6729L18.021 22.3729H23.571Z" fill="black"/>
<path d="M11.246 21.1479H30.396V22.3979H11.246V21.1479Z" fill="black"/>
</g>
<path opacity="0.8" d="M60.164 14.0479H53.468L52.082 17.1979H50.228L55.934 4.59792H57.716L63.44 17.1979H61.55L60.164 14.0479ZM59.534 12.6079L56.816 6.43392L54.098 12.6079H59.534ZM64.4491 17.1979H73.4491V18.3139H64.4491V17.1979ZM75.884 4.59792H81.194C82.526 4.59792 83.708 4.86192 84.74 5.38992C85.772 5.91792 86.57 6.66192 87.134 7.62192C87.71 8.56992 87.998 9.66192 87.998 10.8979C87.998 12.1339 87.71 13.2319 87.134 14.1919C86.57 15.1399 85.772 15.8779 84.74 16.4059C83.708 16.9339 82.526 17.1979 81.194 17.1979H75.884V4.59792ZM81.086 15.6319C82.106 15.6319 83 15.4339 83.768 15.0379C84.548 14.6419 85.148 14.0899 85.568 13.3819C85.988 12.6619 86.198 11.8339 86.198 10.8979C86.198 9.96192 85.988 9.13992 85.568 8.43192C85.148 7.71192 84.548 7.15392 83.768 6.75792C83 6.36192 82.106 6.16392 81.086 6.16392H77.684V15.6319H81.086ZM90.5031 7.65792H92.2311V17.1979H90.5031V7.65792ZM91.3671 5.82192C91.0311 5.82192 90.7491 5.71392 90.5211 5.49792C90.3051 5.28192 90.1971 5.01792 90.1971 4.70592C90.1971 4.39392 90.3051 4.12992 90.5211 3.91392C90.7491 3.68592 91.0311 3.57192 91.3671 3.57192C91.7031 3.57192 91.9791 3.67992 92.1951 3.89592C92.4231 4.09992 92.5371 4.35792 92.5371 4.66992C92.5371 4.99392 92.4231 5.26992 92.1951 5.49792C91.9791 5.71392 91.7031 5.82192 91.3671 5.82192Z" fill="white"/>
<path opacity="0.8" d="M55.796 33.2279H51.736L50.846 35.1979H50.296L53.516 28.1979H54.026L57.246 35.1979H56.696L55.796 33.2279ZM55.606 32.7979L53.766 28.7579L51.936 32.7979H55.606ZM63.8768 35.1979L62.2068 32.8579C61.9601 32.8913 61.7334 32.9079 61.5268 32.9079H59.5268V35.1979H59.0168V28.1979H61.5268C62.4068 28.1979 63.0968 28.4079 63.5968 28.8279C64.0968 29.2413 64.3468 29.8179 64.3468 30.5579C64.3468 31.1113 64.2034 31.5779 63.9168 31.9579C63.6368 32.3313 63.2334 32.5946 62.7068 32.7479L64.4568 35.1979H63.8768ZM61.5268 32.4579C62.2734 32.4579 62.8434 32.2946 63.2368 31.9679C63.6301 31.6346 63.8268 31.1646 63.8268 30.5579C63.8268 29.9513 63.6301 29.4846 63.2368 29.1579C62.8434 28.8246 62.2734 28.6579 61.5268 28.6579H59.5268V32.4579H61.5268ZM67.9564 28.6579H65.4364V28.1979H70.9864V28.6579H68.4664V35.1979H67.9564V28.6579ZM78.7795 35.2479C78.0928 35.2479 77.4728 35.0946 76.9195 34.7879C76.3728 34.4813 75.9395 34.0579 75.6195 33.5179C75.3062 32.9779 75.1495 32.3713 75.1495 31.6979C75.1495 31.0246 75.3062 30.4179 75.6195 29.8779C75.9395 29.3379 76.3728 28.9146 76.9195 28.6079C77.4728 28.3013 78.0928 28.1479 78.7795 28.1479C79.2862 28.1479 79.7528 28.2313 80.1795 28.3979C80.6062 28.5579 80.9695 28.7979 81.2695 29.1179L80.9495 29.4479C80.3895 28.8946 79.6728 28.6179 78.7995 28.6179C78.2128 28.6179 77.6795 28.7513 77.1995 29.0179C76.7195 29.2846 76.3428 29.6546 76.0695 30.1279C75.7962 30.5946 75.6595 31.1179 75.6595 31.6979C75.6595 32.2779 75.7962 32.8046 76.0695 33.2779C76.3428 33.7446 76.7195 34.1113 77.1995 34.3779C77.6795 34.6446 78.2128 34.7779 78.7995 34.7779C79.6662 34.7779 80.3828 34.4979 80.9495 33.9379L81.2695 34.2679C80.9695 34.5879 80.6028 34.8313 80.1695 34.9979C79.7428 35.1646 79.2795 35.2479 78.7795 35.2479ZM86.3012 35.2479C85.6145 35.2479 84.9945 35.0946 84.4412 34.7879C83.8879 34.4746 83.4512 34.0479 83.1312 33.5079C82.8179 32.9679 82.6612 32.3646 82.6612 31.6979C82.6612 31.0313 82.8179 30.4279 83.1312 29.8879C83.4512 29.3479 83.8879 28.9246 84.4412 28.6179C84.9945 28.3046 85.6145 28.1479 86.3012 28.1479C86.9879 28.1479 87.6079 28.3013 88.1612 28.6079C88.7145 28.9146 89.1479 29.3379 89.4612 29.8779C89.7812 30.4179 89.9412 31.0246 89.9412 31.6979C89.9412 32.3713 89.7812 32.9779 89.4612 33.5179C89.1479 34.0579 88.7145 34.4813 88.1612 34.7879C87.6079 35.0946 86.9879 35.2479 86.3012 35.2479ZM86.3012 34.7779C86.8879 34.7779 87.4179 34.6446 87.8912 34.3779C88.3645 34.1113 88.7379 33.7446 89.0112 33.2779C89.2845 32.8046 89.4212 32.2779 89.4212 31.6979C89.4212 31.1179 89.2845 30.5946 89.0112 30.1279C88.7379 29.6546 88.3645 29.2846 87.8912 29.0179C87.4179 28.7513 86.8879 28.6179 86.3012 28.6179C85.7145 28.6179 85.1812 28.7513 84.7012 29.0179C84.2279 29.2846 83.8545 29.6546 83.5812 30.1279C83.3079 30.5946 83.1712 31.1179 83.1712 31.6979C83.1712 32.2779 83.3079 32.8046 83.5812 33.2779C83.8545 33.7446 84.2279 34.1113 84.7012 34.3779C85.1812 34.6446 85.7145 34.7779 86.3012 34.7779ZM92.2101 28.1979H92.7201V34.7379H96.7501V35.1979H92.2101V28.1979ZM98.5597 28.1979H99.0697V34.7379H103.1V35.1979H98.5597V28.1979ZM109.739 34.7379V35.1979H104.909V28.1979H109.589V28.6579H105.419V31.4179H109.149V31.8679H105.419V34.7379H109.739ZM115.02 35.2479C114.333 35.2479 113.713 35.0946 113.16 34.7879C112.613 34.4813 112.18 34.0579 111.86 33.5179C111.546 32.9779 111.39 32.3713 111.39 31.6979C111.39 31.0246 111.546 30.4179 111.86 29.8779C112.18 29.3379 112.613 28.9146 113.16 28.6079C113.713 28.3013 114.333 28.1479 115.02 28.1479C115.526 28.1479 115.993 28.2313 116.42 28.3979C116.846 28.5579 117.21 28.7979 117.51 29.1179L117.19 29.4479C116.63 28.8946 115.913 28.6179 115.04 28.6179C114.453 28.6179 113.92 28.7513 113.44 29.0179C112.96 29.2846 112.583 29.6546 112.31 30.1279C112.036 30.5946 111.9 31.1179 111.9 31.6979C111.9 32.2779 112.036 32.8046 112.31 33.2779C112.583 33.7446 112.96 34.1113 113.44 34.3779C113.92 34.6446 114.453 34.7779 115.04 34.7779C115.906 34.7779 116.623 34.4979 117.19 33.9379L117.51 34.2679C117.21 34.5879 116.843 34.8313 116.41 34.9979C115.983 35.1646 115.52 35.2479 115.02 35.2479ZM120.97 28.6579H118.45V28.1979H124V28.6579H121.48V35.1979H120.97V28.6579ZM125.765 28.1979H126.275V35.1979H125.765V28.1979ZM134.716 28.1979L131.596 35.1979H131.086L127.966 28.1979H128.526L131.356 34.5379L134.186 28.1979H134.716ZM141.175 34.7379V35.1979H136.345V28.1979H141.025V28.6579H136.855V31.4179H140.585V31.8679H136.855V34.7379H141.175Z" fill="white"/>
</svg>
