<svg width="141" height="39" viewBox="0 0 141 39" fill="none" xmlns="http://www.w3.org/2000/svg">
<rect opacity="0.8" width="39" height="39" rx="10" fill="black"/>
<g opacity="0.9">
<path d="M24.6 24.25H16.475L14.925 28H10.775L18.575 10.5H22.575L30.4 28H26.15L24.6 24.25ZM23.325 21.175L20.55 14.475L17.775 21.175H23.325Z" fill="white"/>
<path d="M11 19.95H30.15V21.2H11V19.95Z" fill="white"/>
</g>
<path opacity="0.8" d="M59.918 12.85H53.222L51.836 16H49.982L55.688 3.4H57.47L63.194 16H61.304L59.918 12.85ZM59.288 11.41L56.57 5.236L53.852 11.41H59.288ZM64.2031 16H73.2031V17.116H64.2031V16ZM75.638 3.4H80.948C82.28 3.4 83.462 3.664 84.494 4.192C85.526 4.72 86.324 5.464 86.888 6.424C87.464 7.372 87.752 8.464 87.752 9.7C87.752 10.936 87.464 12.034 86.888 12.994C86.324 13.942 85.526 14.68 84.494 15.208C83.462 15.736 82.28 16 80.948 16H75.638V3.4ZM80.84 14.434C81.86 14.434 82.754 14.236 83.522 13.84C84.302 13.444 84.902 12.892 85.322 12.184C85.742 11.464 85.952 10.636 85.952 9.7C85.952 8.764 85.742 7.942 85.322 7.234C84.902 6.514 84.302 5.956 83.522 5.56C82.754 5.164 81.86 4.966 80.84 4.966H77.438V14.434H80.84ZM90.2571 6.46H91.9851V16H90.2571V6.46ZM91.1211 4.624C90.7851 4.624 90.5031 4.516 90.2751 4.3C90.0591 4.084 89.9511 3.82 89.9511 3.508C89.9511 3.196 90.0591 2.932 90.2751 2.716C90.5031 2.488 90.7851 2.374 91.1211 2.374C91.4571 2.374 91.7331 2.482 91.9491 2.698C92.1771 2.902 92.2911 3.16 92.2911 3.472C92.2911 3.796 92.1771 4.072 91.9491 4.3C91.7331 4.516 91.4571 4.624 91.1211 4.624Z" fill="black"/>
<path opacity="0.8" d="M55.55 32.03H51.49L50.6 34H50.05L53.27 27H53.78L57 34H56.45L55.55 32.03ZM55.36 31.6L53.52 27.56L51.69 31.6H55.36ZM63.6308 34L61.9608 31.66C61.7141 31.6933 61.4874 31.71 61.2808 31.71H59.2808V34H58.7708V27H61.2808C62.1608 27 62.8508 27.21 63.3508 27.63C63.8508 28.0433 64.1008 28.62 64.1008 29.36C64.1008 29.9133 63.9574 30.38 63.6708 30.76C63.3908 31.1333 62.9874 31.3967 62.4608 31.55L64.2108 34H63.6308ZM61.2808 31.26C62.0274 31.26 62.5974 31.0967 62.9908 30.77C63.3841 30.4367 63.5808 29.9667 63.5808 29.36C63.5808 28.7533 63.3841 28.2867 62.9908 27.96C62.5974 27.6267 62.0274 27.46 61.2808 27.46H59.2808V31.26H61.2808ZM67.7104 27.46H65.1904V27H70.7404V27.46H68.2204V34H67.7104V27.46ZM78.5335 34.05C77.8468 34.05 77.2268 33.8967 76.6735 33.59C76.1268 33.2833 75.6935 32.86 75.3735 32.32C75.0602 31.78 74.9035 31.1733 74.9035 30.5C74.9035 29.8267 75.0602 29.22 75.3735 28.68C75.6935 28.14 76.1268 27.7167 76.6735 27.41C77.2268 27.1033 77.8468 26.95 78.5335 26.95C79.0402 26.95 79.5068 27.0333 79.9335 27.2C80.3602 27.36 80.7235 27.6 81.0235 27.92L80.7035 28.25C80.1435 27.6967 79.4268 27.42 78.5535 27.42C77.9668 27.42 77.4335 27.5533 76.9535 27.82C76.4735 28.0867 76.0968 28.4567 75.8235 28.93C75.5502 29.3967 75.4135 29.92 75.4135 30.5C75.4135 31.08 75.5502 31.6067 75.8235 32.08C76.0968 32.5467 76.4735 32.9133 76.9535 33.18C77.4335 33.4467 77.9668 33.58 78.5535 33.58C79.4202 33.58 80.1368 33.3 80.7035 32.74L81.0235 33.07C80.7235 33.39 80.3568 33.6333 79.9235 33.8C79.4968 33.9667 79.0335 34.05 78.5335 34.05ZM86.0552 34.05C85.3686 34.05 84.7486 33.8967 84.1952 33.59C83.6419 33.2767 83.2052 32.85 82.8852 32.31C82.5719 31.77 82.4152 31.1667 82.4152 30.5C82.4152 29.8333 82.5719 29.23 82.8852 28.69C83.2052 28.15 83.6419 27.7267 84.1952 27.42C84.7486 27.1067 85.3686 26.95 86.0552 26.95C86.7419 26.95 87.3619 27.1033 87.9152 27.41C88.4686 27.7167 88.9019 28.14 89.2152 28.68C89.5352 29.22 89.6952 29.8267 89.6952 30.5C89.6952 31.1733 89.5352 31.78 89.2152 32.32C88.9019 32.86 88.4686 33.2833 87.9152 33.59C87.3619 33.8967 86.7419 34.05 86.0552 34.05ZM86.0552 33.58C86.6419 33.58 87.1719 33.4467 87.6452 33.18C88.1186 32.9133 88.4919 32.5467 88.7652 32.08C89.0386 31.6067 89.1752 31.08 89.1752 30.5C89.1752 29.92 89.0386 29.3967 88.7652 28.93C88.4919 28.4567 88.1186 28.0867 87.6452 27.82C87.1719 27.5533 86.6419 27.42 86.0552 27.42C85.4686 27.42 84.9352 27.5533 84.4552 27.82C83.9819 28.0867 83.6086 28.4567 83.3352 28.93C83.0619 29.3967 82.9252 29.92 82.9252 30.5C82.9252 31.08 83.0619 31.6067 83.3352 32.08C83.6086 32.5467 83.9819 32.9133 84.4552 33.18C84.9352 33.4467 85.4686 33.58 86.0552 33.58ZM91.9641 27H92.4741V33.54H96.5041V34H91.9641V27ZM98.3138 27H98.8238V33.54H102.854V34H98.3138V27ZM109.493 33.54V34H104.663V27H109.343V27.46H105.173V30.22H108.903V30.67H105.173V33.54H109.493ZM114.774 34.05C114.087 34.05 113.467 33.8967 112.914 33.59C112.367 33.2833 111.934 32.86 111.614 32.32C111.3 31.78 111.144 31.1733 111.144 30.5C111.144 29.8267 111.3 29.22 111.614 28.68C111.934 28.14 112.367 27.7167 112.914 27.41C113.467 27.1033 114.087 26.95 114.774 26.95C115.28 26.95 115.747 27.0333 116.174 27.2C116.6 27.36 116.964 27.6 117.264 27.92L116.944 28.25C116.384 27.6967 115.667 27.42 114.794 27.42C114.207 27.42 113.674 27.5533 113.194 27.82C112.714 28.0867 112.337 28.4567 112.064 28.93C111.79 29.3967 111.654 29.92 111.654 30.5C111.654 31.08 111.79 31.6067 112.064 32.08C112.337 32.5467 112.714 32.9133 113.194 33.18C113.674 33.4467 114.207 33.58 114.794 33.58C115.66 33.58 116.377 33.3 116.944 32.74L117.264 33.07C116.964 33.39 116.597 33.6333 116.164 33.8C115.737 33.9667 115.274 34.05 114.774 34.05ZM120.724 27.46H118.204V27H123.754V27.46H121.234V34H120.724V27.46ZM125.519 27H126.029V34H125.519V27ZM134.47 27L131.35 34H130.84L127.72 27H128.28L131.11 33.34L133.94 27H134.47ZM140.929 33.54V34H136.099V27H140.779V27.46H136.609V30.22H140.339V30.67H136.609V33.54H140.929Z" fill="black"/>
</svg>
